<svg id="Layer_1" data-name="Layer 1" xmlns="http://www.w3.org/2000/svg" viewBox="0 0 894.94 531.26"><defs><style>.cls-1{fill:#141414;stroke-linecap:round;}.cls-1,.cls-21{stroke:#010101;}.cls-1,.cls-20,.cls-21,.cls-24,.cls-25{stroke-miterlimit:10;}.cls-2{font-size:26px;}.cls-10,.cls-2,.cls-21,.cls-24{fill:#fff;}.cls-10,.cls-2{font-family:MyriadPro-Regular, Myriad Pro;}.cls-3{letter-spacing:0em;}.cls-4{letter-spacing:0em;}.cls-5{letter-spacing:0em;}.cls-6{letter-spacing:0.01em;}.cls-7{letter-spacing:-0.01em;}.cls-8{letter-spacing:-0.04em;}.cls-9{letter-spacing:-0.01em;}.cls-10{font-size:19px;}.cls-11{letter-spacing:-0.01em;}.cls-12{letter-spacing:0em;}.cls-13{letter-spacing:-0.03em;}.cls-14{letter-spacing:0em;}.cls-15{letter-spacing:-0.01em;}.cls-16{letter-spacing:0.03em;}.cls-17{letter-spacing:0.01em;}.cls-18{letter-spacing:0.01em;}.cls-19{letter-spacing:-0.01em;}.cls-20,.cls-23,.cls-25{fill:none;}.cls-20,.cls-24,.cls-25{stroke:#fff;}.cls-22{fill:#a14a9c;}.cls-24,.cls-25{opacity:0.5;}</style></defs><title>roboticsmotor</title><rect class="cls-1" x="0.5" y="0.5" width="893.94" height="72"/><rect class="cls-1" x="0.5" y="72.5" width="471.43" height="306.88"/><rect class="cls-1" x="472.13" y="72.5" width="422.31" height="306.88"/><rect class="cls-1" x="0.5" y="379.38" width="471.43" height="151.37"/><rect class="cls-1" x="471.93" y="379.38" width="422.51" height="151.37"/><text class="cls-2" transform="translate(20.52 43.68)"><tspan class="cls-3">R</tspan><tspan x="14.09" y="0">obot </tspan><tspan class="cls-4" x="71.55" y="0">S</tspan><tspan x="84.29" y="0">t</tspan><tspan class="cls-5" x="92.9" y="0">a</tspan><tspan x="105.32" y="0">tus:</tspan></text><text class="cls-2" transform="translate(495.6 43.68)"><tspan class="cls-6">M</tspan><tspan class="cls-5" x="21.06" y="0">a</tspan><tspan class="cls-7" x="33.49" y="0">t</tspan><tspan x="41.94" y="0">ch</tspan><tspan class="cls-8" x="68.02" y="0"> </tspan><tspan class="cls-9" x="72.46" y="0">T</tspan><tspan x="85.07" y="0">ime:</tspan></text><text class="cls-10" transform="translate(20.52 92.67)"><tspan class="cls-11">C</tspan><tspan x="10.89" y="0">ame</tspan><tspan class="cls-12" x="45.41" y="0">r</tspan><tspan x="51.53" y="0">a </tspan><tspan class="cls-13" x="64.71" y="0">F</tspan><tspan x="73.38" y="0">eed</tspan></text><text class="cls-10" transform="translate(20.52 403.41)">B<tspan class="cls-14" x="10.3" y="0">a</tspan><tspan x="19.38" y="0">t</tspan><tspan class="cls-15" x="25.67" y="0">t</tspan><tspan x="31.84" y="0">e</tspan><tspan class="cls-16" x="41.36" y="0">r</tspan><tspan x="48.05" y="0">y usage</tspan></text><text class="cls-10" transform="translate(495.6 92.67)"><tspan class="cls-17">M</tspan><tspan x="15.39" y="0">o</tspan><tspan class="cls-15" x="25.82" y="0">t</tspan><tspan x="32" y="0">ors</tspan></text><text class="cls-10" transform="translate(495.6 403.41)">Superstru<tspan class="cls-18" x="76.87" y="0">c</tspan><tspan x="85.63" y="0">tu</tspan><tspan class="cls-19" x="102.39" y="0">r</tspan><tspan x="108.41" y="0">e</tspan></text><rect class="cls-20" x="620.93" y="120.55" width="123.51" height="175.2" transform="translate(891.33 -474.04) rotate(90)"/><rect class="cls-20" x="621.38" y="120.55" width="123.51" height="175.2" transform="translate(475.49 891.79) rotate(-90)"/><line class="cls-20" x1="614.73" y1="146.9" x2="614.73" y2="270.4"/><line class="cls-20" x1="752.55" y1="146.9" x2="752.55" y2="270.4"/><rect class="cls-20" x="621.38" y="120.55" width="123.51" height="175.2" transform="translate(891.79 -474.49) rotate(90)"/><rect class="cls-21" x="598.71" y="153.96" width="13.13" height="18.69"/><rect class="cls-21" x="754.82" y="153.46" width="13.15" height="18.69" transform="translate(1523.29 326.1) rotate(-180)"/><rect class="cls-21" x="598.7" y="244.65" width="13.15" height="18.69"/><rect class="cls-21" x="754.82" y="244.15" width="13.15" height="18.69" transform="translate(1523.29 507.5) rotate(180)"/><rect class="cls-21" x="598.7" y="184.1" width="13.15" height="18.69"/><rect class="cls-21" x="754.82" y="183.6" width="13.15" height="18.69" transform="translate(1523.29 386.38) rotate(-180)"/><rect class="cls-21" x="598.7" y="214.51" width="13.15" height="18.69"/><rect class="cls-21" x="754.82" y="214.01" width="13.15" height="18.69" transform="translate(1523.29 447.21) rotate(180)"/><polyline class="cls-21" points="686.45 184.72 686.45 232.51 677.95 232.51 677.95 184.72"/><polyline class="cls-21" points="686.45 184.72 695.2 184.72 682.2 162.2 669.2 184.72 677.95 184.72"/><rect class="cls-21" x="618.61" y="211.35" width="22.61" height="9.48"/><rect class="cls-21" x="618.61" y="225.05" width="22.61" height="9.48"/><rect class="cls-21" x="623.18" y="217.63" width="22.61" height="9.48"/><rect class="cls-21" x="725.56" y="210.85" width="22.61" height="9.48" transform="translate(1474.23 431.67) rotate(-180)"/><rect class="cls-21" x="725.56" y="224.55" width="22.61" height="9.48" transform="translate(1474.23 459.08) rotate(-180)"/><rect class="cls-21" x="720.99" y="217.13" width="22.61" height="9.48" transform="translate(1465.09 444.23) rotate(-180)"/><path class="cls-22" d="M743.05,212.93,774.72,161a1,1,0,0,0-1.66-1L741.4,211.92A1,1,0,0,0,743.05,212.93Z" transform="translate(0.5 0.5)"/><path class="cls-22" d="M773.67,161.58H805c.64,0,.64-1.94,0-1.94H773.67C773,159.64,773,161.58,773.67,161.58Z" transform="translate(0.5 0.5)"/><path class="cls-23" d="M773.56,160.16" transform="translate(0.5 0.5)"/><circle class="cls-22" cx="741.93" cy="214.2" r="1.88"/><circle class="cls-24" cx="741.93" cy="214.2" r="0.77"/><line class="cls-25" x1="742.4" y1="213.43" x2="774.45" y2="161"/><circle class="cls-22" cx="739.51" cy="222.45" r="1.88"/><circle class="cls-24" cx="739.51" cy="222.45" r="0.77"/><circle class="cls-22" cx="806.88" cy="160.99" r="1.88"/><circle class="cls-24" cx="806.88" cy="160.99" r="0.77"/><line class="cls-24" x1="805.97" y1="161.11" x2="774.02" y2="161.11"/><path class="cls-22" d="M805,221H741.15a1,1,0,1,0,0,1.94H805A1,1,0,1,0,805,221Z" transform="translate(0.5 0.5)"/><circle class="cls-22" cx="806.88" cy="222.45" r="1.88"/><circle class="cls-24" cx="806.88" cy="222.45" r="0.77"/><line class="cls-24" x1="740.67" y1="222.45" x2="805.8" y2="222.45"/><path class="cls-22" d="M743.05,230.93l31.67,51.9a1,1,0,0,1-1.66,1l-31.66-51.9A1,1,0,0,1,743.05,230.93Z" transform="translate(0.5 0.5)"/><path class="cls-22" d="M773.67,282.28H805c.64,0,.64,1.94,0,1.94H773.67C773,284.22,773,282.28,773.67,282.28Z" transform="translate(0.5 0.5)"/><circle class="cls-22" cx="741.93" cy="230.66" r="1.88"/><circle class="cls-24" cx="741.93" cy="230.66" r="0.77"/><line class="cls-25" x1="742.4" y1="231.43" x2="774.45" y2="283.87"/><circle class="cls-22" cx="806.88" cy="283.88" r="1.88"/><circle class="cls-24" cx="806.88" cy="283.88" r="0.77"/><line class="cls-24" x1="805.97" y1="283.75" x2="774.02" y2="283.75"/><path class="cls-22" d="M623,212.93,591.29,161a1,1,0,0,1,1.66-1l31.66,51.89A1,1,0,0,1,623,212.93Z" transform="translate(0.5 0.5)"/><path class="cls-22" d="M592.34,161.58H561c-.64,0-.64-1.94,0-1.94h31.32C593,159.64,593,161.58,592.34,161.58Z" transform="translate(0.5 0.5)"/><circle class="cls-22" cx="625.08" cy="214.2" r="1.88"/><circle class="cls-24" cx="625.08" cy="214.2" r="0.77"/><line class="cls-25" x1="624.61" y1="213.43" x2="592.56" y2="161"/><line class="cls-24" x1="561.04" y1="161.11" x2="592.99" y2="161.11"/><path class="cls-22" d="M623,230.93l-31.67,51.9a1,1,0,0,0,1.66,1l31.66-51.9A1,1,0,0,0,623,230.93Z" transform="translate(0.5 0.5)"/><path class="cls-22" d="M592.34,282.28H561c-.64,0-.64,1.94,0,1.94h31.32C593,284.22,593,282.28,592.34,282.28Z" transform="translate(0.5 0.5)"/><circle class="cls-22" cx="625.08" cy="230.66" r="1.88"/><circle class="cls-24" cx="625.08" cy="230.66" r="0.77"/><line class="cls-25" x1="624.61" y1="231.43" x2="592.56" y2="283.87"/><line class="cls-24" x1="561.04" y1="283.75" x2="592.99" y2="283.75"/><circle class="cls-22" cx="559.92" cy="160.99" r="1.88"/><circle class="cls-24" cx="559.92" cy="160.99" r="0.77"/><circle class="cls-22" cx="559.92" cy="283.88" r="1.88"/><circle class="cls-24" cx="559.92" cy="283.88" r="0.77"/><circle class="cls-22" cx="626.84" cy="222.45" r="1.88"/><circle class="cls-24" cx="626.84" cy="222.45" r="0.77"/><path class="cls-22" d="M560.36,221H624.2a1,1,0,1,1,0,1.94H560.36A1,1,0,1,1,560.36,221Z" transform="translate(0.5 0.5)"/><circle class="cls-22" cx="559.47" cy="222.45" r="1.88"/><circle class="cls-24" cx="559.47" cy="222.45" r="0.77"/><line class="cls-24" x1="625.68" y1="222.45" x2="560.55" y2="222.45"/></svg>